<svg width="38" height="44" viewBox="0 0 38 44" fill="none" xmlns="http://www.w3.org/2000/svg">
<path fill-rule="evenodd" clip-rule="evenodd" d="M6.33333 7.3854C6.33333 9.2873 7.2238 10.1948 8.14213 10.6249C9.12127 11.0836 10.1333 10.9989 10.1333 10.9989V15.3989C10.1333 15.3989 7.85333 19.7318 5.21613 20.4534C4.33833 20.6932 3.42 20.5326 2.53333 19.6779C2.53333 21.5061 3.54667 22.3575 4.48907 22.7546C5.31113 23.1 6.08 23.1 6.08 23.1H7.6V27.5C7.6 27.5 5.8216 32.0056 2.94373 32.5919C2.0596 32.7723 1.0716 32.582 0 31.7779C0 33.6039 1.29833 34.4553 2.51053 34.8524L2.53333 34.8601V44H35.4667V34.8601L35.4882 34.8535C36.6991 34.4575 38 33.605 38 31.7779C36.9512 32.5644 35.9531 32.7635 35.0373 32.6029C32.9118 32.2311 31.2309 29.9233 30.4 28.5417V23.1H31.92C31.92 23.1 32.6889 23.1 33.5109 22.7546C34.4533 22.3586 35.4667 21.5061 35.4667 19.6779C34.6003 20.5139 33.6756 20.6866 32.775 20.4688C30.685 19.9628 28.7179 17.3624 27.8667 16.0952V11C27.8667 11 28.8787 11.0836 29.8579 10.6249C30.7762 10.1948 31.6667 9.2862 31.6667 7.3854C30.8015 8.1906 29.8642 8.5052 28.9015 8.4744C25.7703 8.3721 22.3909 4.6046 20.501 2.1274C19.57 0.9064 19 0 19 0C19 0 18.43 0.9064 17.499 2.1274C15.6091 4.6046 12.2297 8.3721 9.09847 8.4744C8.1358 8.5052 7.19847 8.1906 6.33333 7.3854ZM25.9945 17.6616C25.9801 17.6411 25.9658 17.6206 25.9515 17.6H11.6711L11.6495 17.633C11.1745 18.3612 10.469 19.3468 9.59753 20.2422C9.37737 20.4695 9.14665 20.689 8.90593 20.9H28.9117C28.6672 20.6976 28.443 20.4952 28.2403 20.3016C27.3119 19.415 26.5468 18.436 26.0275 17.7078L26.0097 17.6825L25.9945 17.6616ZM21.5333 13.2C21.8693 13.2 22.1915 13.3159 22.429 13.5222C22.6665 13.7285 22.8 14.0083 22.8 14.3V15.4H25.3333V11H12.6667V15.4H15.2V14.3C15.2 14.0083 15.3335 13.7285 15.571 13.5222C15.8085 13.3159 16.1307 13.2 16.4667 13.2C16.8026 13.2 17.1248 13.3159 17.3623 13.5222C17.5999 13.7285 17.7333 14.0083 17.7333 14.3V15.4H20.2667V14.3C20.2667 14.0083 20.4001 13.7285 20.6377 13.5222C20.8752 13.3159 21.1974 13.2 21.5333 13.2ZM24.0667 25.3C24.4026 25.3 24.7248 25.4159 24.9623 25.6222C25.1999 25.8285 25.3333 26.1083 25.3333 26.4V27.5H27.8667V23.1H10.1333V27.5H12.6667V26.4C12.6667 26.1083 12.8001 25.8285 13.0377 25.6222C13.2752 25.4159 13.5974 25.3 13.9333 25.3C14.2693 25.3 14.5915 25.4159 14.829 25.6222C15.0665 25.8285 15.2 26.1083 15.2 26.4V27.5H17.7333V26.4C17.7333 26.1083 17.8668 25.8285 18.1043 25.6222C18.3419 25.4159 18.6641 25.3 19 25.3C19.3359 25.3 19.6581 25.4159 19.8957 25.6222C20.1332 25.8285 20.2667 26.1083 20.2667 26.4V27.5H22.8V26.4C22.8 26.1083 22.9335 25.8285 23.171 25.6222C23.4085 25.4159 23.7307 25.3 24.0667 25.3ZM23.7943 8.8C22.9917 8.2307 22.242 7.60726 21.5523 6.9355C20.6362 6.04368 19.7839 5.10399 19 4.1217C18.2157 5.10402 17.3629 6.04371 16.4464 6.9355C15.7571 7.60722 15.0079 8.23065 14.2057 8.8H23.7943ZM30.2797 32.351C30.4861 32.5622 30.7179 32.7822 30.9738 33H6.79313C7.06547 32.7525 7.30613 32.5028 7.51513 32.2663C8.2954 31.3874 8.88693 30.4304 9.28467 29.7H28.2391C28.6951 30.4414 29.3854 31.4413 30.2797 32.351ZM15.2 37.4C14.5281 37.4 13.8838 37.6318 13.4087 38.0444C12.9336 38.4569 12.6667 39.0165 12.6667 39.6V41.8H10.1333V35.2H27.8667V41.8H25.3333V39.6C25.3333 39.0165 25.0664 38.4569 24.5913 38.0444C24.1162 37.6318 23.4719 37.4 22.8 37.4H15.2ZM5.06667 41.8V35.2H7.6V41.8H5.06667ZM30.4 41.8V35.2H32.9333V41.8H30.4ZM22.8 39.6V41.8H15.2V39.6H22.8Z" fill="white"/>
</svg>
